<svg xmlns="http://www.w3.org/2000/svg" width="26.248" height="26.044" viewBox="0 0 26.248 26.044">
  <g id="settings" transform="translate(-56.752 -598.674)">
    <g id="Path_6" data-name="Path 6" transform="matrix(0.996, -0.087, 0.087, 0.996, 59.625, 603.268)" fill="none">
      <path d="M9.3-.011A9.34,9.34,0,0,1,18.6,9.4a9.392,9.392,0,0,1-9.315,9.436A9.34,9.34,0,0,1-.011,9.426,9.392,9.392,0,0,1,9.3-.011Z" stroke="none"/>
      <path d="M 9.31532096862793 3.98930835723877 L 9.315377235412598 3.98930835723877 L 9.309131622314453 3.98931884765625 C 6.379171371459961 3.992678642272949 3.992711067199707 6.43345832824707 3.989321708679199 9.430228233337402 C 3.987651824951172 10.89971923828125 4.55117130279541 12.27408790588379 5.576071739196777 13.30014801025391 C 6.568391799926758 14.29359817504883 7.881101608276367 14.84070873260498 9.272331237792969 14.84070873260498 L 9.278591156005859 14.8406982421875 C 12.20855140686035 14.8373384475708 14.59501171112061 12.39655876159668 14.59840106964111 9.399788856506348 C 14.60007095336914 7.930298805236816 14.0365514755249 6.555928230285645 13.01165199279785 5.529868125915527 C 12.01933097839355 4.536418914794922 10.70662117004395 3.98930835723877 9.31532096862793 3.98930835723877 M 9.315316200256348 -0.01068687438964844 C 14.44931316375732 -0.01068687438964844 18.60429763793945 4.202163696289062 18.59840202331543 9.404328346252441 C 18.59250068664551 14.60999870300293 14.42194175720215 18.83479881286621 9.283181190490723 18.8406982421875 C 4.145492553710938 18.84659767150879 -0.01657867431640625 14.6313591003418 -0.01067924499511719 9.425688743591309 C -0.004777908325195312 4.220028877258301 4.165781021118164 -0.004781723022460938 9.30454158782959 -0.01068115234375 C 9.307991027832031 -0.01068496704101562 9.311867713928223 -0.01068687438964844 9.315316200256348 -0.01068687438964844 Z" stroke="none" fill="#fff"/>
    </g>
    <g id="Group_33" data-name="Group 33" transform="translate(56.752 599)">
      <path id="Polygon_3" data-name="Polygon 3" d="M1.606,1.789a1,1,0,0,1,1.789,0l.882,1.764A1,1,0,0,1,3.382,5H1.618A1,1,0,0,1,.724,3.553Z" transform="translate(10.248 -0.326)" fill="#fff"/>
      <path id="Polygon_4" data-name="Polygon 4" d="M1.606,1.789a1,1,0,0,1,1.789,0l.882,1.764A1,1,0,0,1,3.382,5H1.618A1,1,0,0,1,.724,3.553Z" transform="translate(2.773 5.315) rotate(-42)" fill="#fff"/>
      <path id="Polygon_5" data-name="Polygon 5" d="M1.606,1.789a1,1,0,0,1,1.789,0l.882,1.764A1,1,0,0,1,3.382,5H1.618A1,1,0,0,1,.724,3.553Z" transform="matrix(0.105, -0.995, 0.995, 0.105, 0, 13.594)" fill="#fff"/>
      <path id="Polygon_6" data-name="Polygon 6" d="M1.606,1.789a1,1,0,0,1,1.789,0l.882,1.764A1,1,0,0,1,3.382,5H1.618A1,1,0,0,1,.724,3.553Z" transform="matrix(-0.454, -0.891, 0.891, -0.454, 2.655, 20.704)" fill="#fff"/>
      <path id="Polygon_7" data-name="Polygon 7" d="M1.606,1.789a1,1,0,0,1,1.789,0l.882,1.764A1,1,0,0,1,3.382,5H1.618A1,1,0,0,1,.724,3.553Z" transform="matrix(-0.848, -0.53, 0.53, -0.848, 8.917, 25.173)" fill="#fff"/>
      <path id="Polygon_8" data-name="Polygon 8" d="M1.606,1.789a1,1,0,0,1,1.789,0l.882,1.764A1,1,0,0,1,3.382,5H1.618A1,1,0,0,1,.724,3.553Z" transform="translate(16.973 25.369) rotate(176)" fill="#fff"/>
      <path id="Polygon_9" data-name="Polygon 9" d="M1.606,1.789a1,1,0,0,1,1.789,0l.882,1.764A1,1,0,0,1,3.382,5H1.618A1,1,0,0,1,.724,3.553Z" transform="translate(23.689 19.393) rotate(133)" fill="#fff"/>
      <path id="Polygon_10" data-name="Polygon 10" d="M1.606,1.789a1,1,0,0,1,1.789,0l.882,1.764A1,1,0,0,1,3.382,5H1.618A1,1,0,0,1,.724,3.553Z" transform="matrix(-0.276, 0.961, -0.961, -0.276, 26.248, 12.771)" fill="#fff"/>
      <path id="Polygon_11" data-name="Polygon 11" d="M1.606,1.789a1,1,0,0,1,1.789,0l.882,1.764A1,1,0,0,1,3.382,5H1.618A1,1,0,0,1,.724,3.553Z" transform="matrix(0.407, 0.914, -0.914, 0.407, 23.422, 4.94)" fill="#fff"/>
      <path id="Polygon_12" data-name="Polygon 12" d="M1.606,1.789a1,1,0,0,1,1.789,0l.882,1.764A1,1,0,0,1,3.382,5H1.618A1,1,0,0,1,.724,3.553Z" transform="translate(17.216 0.397) rotate(32)" fill="#fff"/>
    </g>
  </g>
</svg>
